<svg viewBox="486.402 375.4016 558.196 154.1967" width="5000" height="1381.205705522791"
     xmlns="http://www.w3.org/2000/svg"
     preserveAspectRatio="none">
    <defs></defs>
    <style>.a--NKmLRcc0filter-floo {flood-color:#285A84;flood-opacity:0.5;}.a6izo4zJpcolor
        {fill:#285A84;fill-opacity:1;}.a6izo4zJpstrokeColor-str {stroke:#FFA8C5;stroke-opacity:1;}.aD6z1nYkhcolor
        {fill:#285A84;fill-opacity:1;}.aD6z1nYkhstrokeColor-str {stroke:#FFA8C5;stroke-opacity:1;}.aIptOCySncolors-0
        {fill:#87C1F1;fill-opacity:1;}.aIptOCySncolors-1 {fill:#285A84;fill-opacity:1;}.aZRQPZ4OM70filter-floo
        {flood-color:#285A84;flood-opacity:0.18;}
    </style>
    <defs>
        <filter
                x="-1000"
                y="-1000"
                width="5000"
                height="5000"
                id="ZRQPZ4OM7"
                filterUnits="userSpaceOnUse"
                primitiveUnits="userSpaceOnUse"
                color-interpolation-filters="sRGB">

            <feGaussianBlur in="SourceGraphic" stdDeviation="0"/>
            <feOffset dx="1" dy="2" result="QShpRgXCBfp"/>
            <feFlood flood-color="#285A84" flood-opacity="0.18" in="QShpRgXCBfp"/>
            <feComposite in2="QShpRgXCBfp" operator="in" result="Ptkqo8TwyGo"/>
            <feMerge result="a90hBckAxV4Z">
                <feMergeNode in="Ptkqo8TwyGo"/>
                <feMergeNode in="SourceGraphic"/>
            </feMerge>
        </filter>
        <filter
                x="-1000"
                y="-1000"
                width="5000"
                height="5000"
                id="--NKmLRcc"
                filterUnits="userSpaceOnUse"
                primitiveUnits="userSpaceOnUse"
                color-interpolation-filters="sRGB">

            <feGaussianBlur in="SourceGraphic" stdDeviation="0"/>
            <feOffset dx="1" dy="4" result="-Tc5XgREk8O"/>
            <feFlood flood-color="#285A84" flood-opacity="0.5" in="-Tc5XgREk8O"/>
            <feComposite in2="-Tc5XgREk8O" operator="in" result="ZkkLIeZVeUh"/>
            <feMerge result="a2334jSApKap">
                <feMergeNode in="ZkkLIeZVeUh"/>
                <feMergeNode in="SourceGraphic"/>
            </feMerge>
        </filter>
    </defs>
    <g opacity="1" transform="rotate(0 486.402 375.4016)">
        <svg width="152.1958" height="152.1967" x="486.402" y="375.4016" version="1.1" preserveAspectRatio="none"
             viewBox="19.99898910522461 19.998489379882812 160.00051879882812 160.00152587890625">
            <g transform="matrix(1 0 0 1 0 0)">
                <g>
                    <path clip-rule="evenodd" fill-rule="evenodd"
                          d="M158.424 110.443c9.227 9.227 9.227 24.187 0 33.414l-25.94 25.94c-20.875 15.221-50.3 13.41-69.142-5.432l-5.755-5.754c8.408 8.407 21.957 8.54 30.528.4l.41-.401 42.572-42.572c8.246-8.246 9.124-21.069 2.632-30.289l24.695 24.695z"
                          data-color="1" class="aIptOCySncolors-0"></path>
                    <path clip-rule="evenodd" fill-rule="evenodd"
                          d="M89.555 158.425c-9.227 9.227-24.187 9.227-33.414 0l-25.94-25.94c-15.221-20.876-13.41-50.3 5.432-69.143l5.754-5.754c-8.407 8.407-8.54 21.956-.4 30.527l.401.41L83.961 131.1c8.246 8.245 21.069 9.123 30.289 2.63l-24.695 24.696z"
                          data-color="1" class="aIptOCySncolors-0"></path>
                    <path clip-rule="evenodd" fill-rule="evenodd"
                          d="M41.573 89.555c-9.227-9.227-9.227-24.186 0-33.413L67.513 30.2c20.876-15.22 50.3-13.41 69.143 5.433l5.754 5.754c-8.407-8.408-21.956-8.541-30.527-.4l-.41.4L68.9 83.962c-8.246 8.246-9.123 21.07-2.632 30.29L41.573 89.554z"
                          data-color="1" class="aIptOCySncolors-0"></path>
                    <path opacity=".648" clip-rule="evenodd" fill-rule="evenodd"
                          d="M158.424 110.444c9.227 9.227 9.227 24.187 0 33.414l-25.94 25.94c-20.876 15.221-50.3 13.41-69.143-5.432l-5.754-5.754c8.407 8.407 21.956 8.54 30.527.4l.41-.401 42.574-42.573c8.245-8.246 9.123-21.069 2.63-30.289l24.696 24.695z"
                          data-color="2" class="aIptOCySncolors-1"></path>
                    <path clip-rule="evenodd" fill-rule="evenodd" opacity=".351"
                          d="M89.556 158.426c-9.227 9.227-24.187 9.227-33.414 0l-25.94-25.94c-15.221-20.876-13.41-50.3 5.432-69.143l5.754-5.754c-8.407 8.407-8.54 21.956-.4 30.527l.401.41L83.962 131.1c8.245 8.246 21.069 9.123 30.289 2.632l-24.695 24.695z"
                          data-color="2" class="aIptOCySncolors-1"></path>
                    <path clip-rule="evenodd" fill-rule="evenodd"
                          d="M110.634 41.766c9.227-9.227 24.187-9.227 33.414 0l25.75 25.749c15.22 20.876 13.41 50.3-5.433 69.143l-5.755 5.754c8.408-8.407 8.542-21.956.4-30.527l-.4-.41-42.135-42.136c-9.085-9.085-23.728-9.225-32.983-.419l-.43.42 27.572-27.574z"
                          data-color="2" class="aIptOCySncolors-1"></path>
                </g>
            </g>
        </svg>
    </g>
    <g filter="url(#ZRQPZ4OM7)">
        <g opacity="1" transform="rotate(0 663.5977 501.5983)">
            <svg width="271.0805" height="26" x="663.5977" y="501.5983" version="1.1" preserveAspectRatio="none"
                 viewBox="4.56 -29.68 390.44 37.44">
                <g transform="matrix(1 0 0 1 0 0)" class="a6izo4zJpcolor">
                    <path id="id-6izo4zJp15"
                          d="M4.56 0L4.56-28L15.96-28Q20.40-28 23.80-26.22Q27.20-24.44 29.08-21.26Q30.96-18.08 30.96-14L30.96-14Q30.96-9.92 29.08-6.74Q27.20-3.56 23.80-1.78Q20.40 0 15.96 0L15.96 0L4.56 0ZM7.52-2.56L15.80-2.56Q19.48-2.56 22.24-4.02Q25-5.48 26.52-8.06Q28.04-10.64 28.04-14L28.04-14Q28.04-17.36 26.52-19.94Q25-22.52 22.24-23.98Q19.48-25.44 15.80-25.44L15.80-25.44L7.52-25.44L7.52-2.56Z M57.76-10.52L57.72-9.64L40.12-9.64Q40.36-6.36 42.64-4.34Q44.92-2.32 48.40-2.32L48.40-2.32Q50.36-2.32 52-3.02Q53.64-3.72 54.84-5.08L54.84-5.08L56.44-3.24Q55.04-1.56 52.94-0.68Q50.84 0.20 48.32 0.20L48.32 0.20Q45.08 0.20 42.58-1.18Q40.08-2.56 38.68-5Q37.28-7.44 37.28-10.52L37.28-10.52Q37.28-13.60 38.62-16.04Q39.96-18.48 42.30-19.84Q44.64-21.20 47.56-21.20L47.56-21.20Q50.48-21.20 52.80-19.84Q55.12-18.48 56.44-16.06Q57.76-13.64 57.76-10.52L57.76-10.52ZM47.56-18.76Q44.52-18.76 42.46-16.82Q40.40-14.88 40.12-11.76L40.12-11.76L55.04-11.76Q54.76-14.88 52.70-16.82Q50.64-18.76 47.56-18.76L47.56-18.76ZM44.96-24.32L50.44-29.28L54.24-29.28L47.76-24.32L44.96-24.32Z M80.44-21.04L83.24-21.04L73.88 0L70.96 0L61.64-21.04L64.60-21.04L72.48-3.12L80.44-21.04Z M107.40-10.52L107.36-9.64L89.76-9.64Q90.00-6.36 92.28-4.34Q94.56-2.32 98.04-2.32L98.04-2.32Q100.00-2.32 101.64-3.02Q103.28-3.72 104.48-5.08L104.48-5.08L106.08-3.24Q104.68-1.56 102.58-0.68Q100.48 0.20 97.96 0.20L97.96 0.20Q94.72 0.20 92.22-1.18Q89.72-2.56 88.32-5Q86.92-7.44 86.92-10.52L86.92-10.52Q86.92-13.60 88.26-16.04Q89.60-18.48 91.94-19.84Q94.28-21.20 97.20-21.20L97.20-21.20Q100.12-21.20 102.44-19.84Q104.76-18.48 106.08-16.06Q107.40-13.64 107.40-10.52L107.40-10.52ZM97.20-18.76Q94.16-18.76 92.10-16.82Q90.04-14.88 89.76-11.76L89.76-11.76L104.68-11.76Q104.40-14.88 102.34-16.82Q100.28-18.76 97.20-18.76L97.20-18.76Z M115.60 0L115.60-29.68L118.44-29.68L118.44 0L115.60 0Z M137.36 0.20Q134.32 0.20 131.88-1.18Q129.44-2.56 128.04-5Q126.64-7.44 126.64-10.52L126.64-10.52Q126.64-13.60 128.04-16.04Q129.44-18.48 131.88-19.84Q134.32-21.20 137.36-21.20L137.36-21.20Q140.40-21.20 142.84-19.84Q145.28-18.48 146.66-16.04Q148.04-13.60 148.04-10.52L148.04-10.52Q148.04-7.44 146.66-5Q145.28-2.56 142.84-1.18Q140.40 0.20 137.36 0.20L137.36 0.20ZM137.36-2.32Q139.60-2.32 141.38-3.34Q143.16-4.36 144.16-6.24Q145.16-8.12 145.16-10.52L145.16-10.52Q145.16-12.92 144.16-14.80Q143.16-16.68 141.38-17.70Q139.60-18.72 137.36-18.72L137.36-18.72Q135.12-18.72 133.34-17.70Q131.56-16.68 130.54-14.80Q129.52-12.92 129.52-10.52L129.52-10.52Q129.52-8.12 130.54-6.24Q131.56-4.36 133.34-3.34Q135.12-2.32 137.36-2.32L137.36-2.32Z M167.08-21.20Q170.04-21.20 172.44-19.86Q174.84-18.52 176.20-16.08Q177.56-13.64 177.56-10.52L177.56-10.52Q177.56-7.36 176.20-4.92Q174.84-2.48 172.46-1.14Q170.08 0.20 167.08 0.20L167.08 0.20Q164.52 0.20 162.46-0.86Q160.40-1.92 159.08-3.96L159.08-3.96L159.08 7.76L156.24 7.76L156.24-21.04L158.96-21.04L158.96-16.88Q160.24-18.96 162.34-20.08Q164.44-21.20 167.08-21.20L167.08-21.20ZM166.88-2.32Q169.08-2.32 170.88-3.34Q172.68-4.36 173.70-6.24Q174.72-8.12 174.72-10.52L174.72-10.52Q174.72-12.92 173.70-14.78Q172.68-16.64 170.88-17.68Q169.08-18.72 166.88-18.72L166.88-18.72Q164.64-18.72 162.86-17.68Q161.08-16.64 160.06-14.78Q159.04-12.92 159.04-10.52L159.04-10.52Q159.04-8.12 160.06-6.24Q161.08-4.36 162.86-3.34Q164.64-2.32 166.88-2.32L166.88-2.32Z M196.60-21.20Q199.56-21.20 201.96-19.86Q204.36-18.52 205.72-16.08Q207.08-13.64 207.08-10.52L207.08-10.52Q207.08-7.36 205.72-4.92Q204.36-2.48 201.98-1.14Q199.60 0.20 196.60 0.20L196.60 0.20Q194.04 0.20 191.98-0.86Q189.92-1.92 188.60-3.96L188.60-3.96L188.60 7.76L185.76 7.76L185.76-21.04L188.48-21.04L188.48-16.88Q189.76-18.96 191.86-20.08Q193.96-21.20 196.60-21.20L196.60-21.20ZM196.40-2.32Q198.60-2.32 200.40-3.34Q202.20-4.36 203.22-6.24Q204.24-8.12 204.24-10.52L204.24-10.52Q204.24-12.92 203.22-14.78Q202.20-16.64 200.40-17.68Q198.60-18.72 196.40-18.72L196.40-18.72Q194.16-18.72 192.38-17.68Q190.60-16.64 189.58-14.78Q188.56-12.92 188.56-10.52L188.56-10.52Q188.56-8.12 189.58-6.24Q190.60-4.36 192.38-3.34Q194.16-2.32 196.40-2.32L196.40-2.32Z M233.64-10.52L233.60-9.64L216.00-9.64Q216.24-6.36 218.52-4.34Q220.80-2.32 224.28-2.32L224.28-2.32Q226.24-2.32 227.88-3.02Q229.52-3.72 230.72-5.08L230.72-5.08L232.32-3.24Q230.92-1.56 228.82-0.68Q226.72 0.20 224.20 0.20L224.20 0.20Q220.96 0.20 218.46-1.18Q215.96-2.56 214.56-5Q213.16-7.44 213.16-10.52L213.16-10.52Q213.16-13.60 214.50-16.04Q215.84-18.48 218.18-19.84Q220.52-21.20 223.44-21.20L223.44-21.20Q226.36-21.20 228.68-19.84Q231.00-18.48 232.32-16.06Q233.64-13.64 233.64-10.52L233.64-10.52ZM223.44-18.76Q220.40-18.76 218.34-16.82Q216.28-14.88 216.00-11.76L216.00-11.76L230.92-11.76Q230.64-14.88 228.58-16.82Q226.52-18.76 223.44-18.76L223.44-18.76Z M257.96-21.04L260.80-21.04L260.80 0L258.08 0L258.08-3.84Q256.96-1.92 255.00-0.86Q253.04 0.20 250.52 0.20L250.52 0.20Q246.40 0.20 244.02-2.10Q241.64-4.40 241.64-8.84L241.64-8.84L241.64-21.04L244.48-21.04L244.48-9.12Q244.48-5.80 246.12-4.08Q247.76-2.36 250.80-2.36L250.80-2.36Q254.12-2.36 256.04-4.38Q257.96-6.40 257.96-10L257.96-10L257.96-21.04Z M273.88-16.92Q274.88-19.04 276.86-20.12Q278.84-21.20 281.76-21.20L281.76-21.20L281.76-18.44L281.08-18.48Q277.76-18.48 275.88-16.44Q274.00-14.40 274.00-10.72L274.00-10.72L274.00 0L271.16 0L271.16-21.04L273.88-21.04L273.88-16.92Z M338.68-28L341.52-28L332.08 0L328.96 0L320.76-23.88L312.52 0L309.44 0L300.00-28L303.04-28L311.12-3.92L319.48-28L322.24-28L330.48-3.80L338.68-28Z M365.48-10.52L365.44-9.64L347.84-9.64Q348.08-6.36 350.36-4.34Q352.64-2.32 356.12-2.32L356.12-2.32Q358.08-2.32 359.72-3.02Q361.36-3.72 362.56-5.08L362.56-5.08L364.16-3.24Q362.76-1.56 360.66-0.68Q358.56 0.20 356.04 0.20L356.04 0.20Q352.80 0.20 350.30-1.18Q347.80-2.56 346.40-5Q345-7.44 345-10.52L345-10.52Q345-13.60 346.34-16.04Q347.68-18.48 350.02-19.84Q352.36-21.20 355.28-21.20L355.28-21.20Q358.20-21.20 360.52-19.84Q362.84-18.48 364.16-16.06Q365.48-13.64 365.48-10.52L365.48-10.52ZM355.28-18.76Q352.24-18.76 350.18-16.82Q348.12-14.88 347.84-11.76L347.84-11.76L362.76-11.76Q362.48-14.88 360.42-16.82Q358.36-18.76 355.28-18.76L355.28-18.76Z M384.52-21.20Q387.48-21.20 389.88-19.86Q392.28-18.52 393.64-16.08Q395-13.64 395-10.52L395-10.52Q395-7.40 393.64-4.96Q392.28-2.52 389.88-1.16Q387.48 0.20 384.52 0.20L384.52 0.20Q381.88 0.20 379.78-0.92Q377.68-2.04 376.40-4.16L376.40-4.16L376.40 0L373.68 0L373.68-29.68L376.52-29.68L376.52-17.04Q377.84-19.08 379.90-20.14Q381.96-21.20 384.52-21.20L384.52-21.20ZM384.32-2.32Q386.52-2.32 388.32-3.34Q390.12-4.36 391.14-6.24Q392.16-8.12 392.16-10.52L392.16-10.52Q392.16-12.92 391.14-14.80Q390.12-16.68 388.32-17.70Q386.52-18.72 384.32-18.72L384.32-18.72Q382.08-18.72 380.30-17.70Q378.52-16.68 377.50-14.80Q376.48-12.92 376.48-10.52L376.48-10.52Q376.48-8.12 377.50-6.24Q378.52-4.36 380.30-3.34Q382.08-2.32 384.32-2.32L384.32-2.32Z"/>
                </g>
            </svg>
        </g>
    </g>
    <g filter="url(#--NKmLRcc)">
        <g opacity="1" transform="rotate(0 663.5978 424.3796)">
            <svg width="380.0002" height="54.2407" x="663.5978" y="424.3796" version="1.1" preserveAspectRatio="none"
                 viewBox="1.6016 -26.8359 191.4257 27.324199999999998">
                <g transform="matrix(1 0 0 1 0 0)" class="aD6z1nYkhcolor">
                    <path id="id-D6z1nYkh7"
                          d="M1.60-24.65L1.60-26.84L15.23-26.84L15.23-24.65L9.65-24.65L9.65-2.29L29.08-2.29L29.08-8.44L31.29-8.44L31.29 0L1.60 0L1.60-2.21L7.21-2.21L7.21-24.65L1.60-24.65Z M33.79-16.41L33.79-18.59L40.63-18.59L40.63-2.21L45.04-2.21L45.04 0L33.79 0L33.79-2.21L38.18-2.21L38.18-16.41L33.79-16.41ZM36.95-23.81L36.95-23.81Q36.95-24.26 37.12-24.66Q37.29-25.06 37.58-25.35Q37.87-25.64 38.26-25.82Q38.65-26.00 39.10-26.00L39.10-26.00Q39.55-26.00 39.95-25.82Q40.35-25.64 40.65-25.35Q40.96-25.06 41.13-24.66Q41.31-24.26 41.31-23.81L41.31-23.81Q41.31-23.36 41.13-22.96Q40.96-22.56 40.65-22.27Q40.35-21.97 39.95-21.81Q39.55-21.64 39.10-21.64L39.10-21.64Q38.65-21.64 38.26-21.81Q37.87-21.97 37.58-22.27Q37.29-22.56 37.12-22.96Q36.95-23.36 36.95-23.81Z M46.58-16.41L46.58-18.59L53.42-18.59L53.42-15.08Q54.34-15.96 55.47-16.71Q56.60-17.46 57.91-18.03Q59.22-18.59 60.66-18.92Q62.11-19.24 63.63-19.24L63.63-19.24Q65.45-19.24 66.81-18.78Q68.16-18.32 69.06-17.48Q69.96-16.64 70.41-15.44Q70.86-14.24 70.86-12.75L70.86-12.75L70.86-2.21L75.27-2.21L75.27 0L64.02 0L64.02-2.21L68.42-2.21L68.42-12.03Q68.42-13.52 68.04-14.48Q67.66-15.45 66.95-16.02Q66.25-16.58 65.24-16.81Q64.24-17.03 62.99-17.03L62.99-17.03Q61.52-17.03 60.12-16.64Q58.71-16.25 57.47-15.66Q56.23-15.08 55.19-14.37Q54.14-13.65 53.42-13.01L53.42-13.01L53.42-2.21L57.83-2.21L57.83 0L46.58 0L46.58-2.21L50.98-2.21L50.98-16.41L46.58-16.41Z M80.33-10.23L97.50-10.23Q97.40-11.56 96.89-12.75Q96.39-13.95 95.37-14.85Q94.36-15.76 92.81-16.30Q91.27-16.84 89.10-16.84L89.10-16.84Q87.07-16.84 85.51-16.30Q83.95-15.76 82.85-14.85Q81.76-13.95 81.13-12.75Q80.51-11.56 80.33-10.23L80.33-10.23ZM89.06 0.49L89.06 0.49Q86.50 0.49 84.42-0.19Q82.34-0.86 80.88-2.12Q79.41-3.38 78.61-5.18Q77.81-6.97 77.81-9.20L77.81-9.20Q77.81-11.37 78.65-13.17Q79.49-14.98 81.00-16.28Q82.50-17.58 84.57-18.29Q86.64-19.00 89.10-19.00L89.10-19.00Q91.66-19.00 93.69-18.28Q95.72-17.56 97.13-16.20Q98.54-14.84 99.28-12.91Q100.02-10.98 100.02-8.55L100.02-8.55L100.02-8.13L80.33-8.13Q80.47-6.64 81.10-5.45Q81.74-4.26 82.85-3.42Q83.96-2.58 85.52-2.13Q87.07-1.68 89.06-1.68L89.06-1.68Q90.98-1.68 92.39-1.99Q93.81-2.30 94.79-2.83Q95.78-3.36 96.40-4.02Q97.01-4.69 97.34-5.39L97.34-5.39L99.79-5.39Q98.63-2.42 95.87-0.97Q93.11 0.49 89.06 0.49Z M103.46-24.65L103.46-26.84L122.85-26.84Q126.15-26.84 128.98-26.19Q131.82-25.55 133.90-23.99Q135.98-22.44 137.16-19.86Q138.34-17.29 138.34-13.44L138.34-13.44Q138.34-10.86 137.80-8.86Q137.27-6.86 136.29-5.37Q135.31-3.89 133.92-2.85Q132.52-1.82 130.81-1.19Q129.10-0.57 127.10-0.28Q125.10 0 122.89 0L122.89 0L103.46 0L103.46-2.21L109.06-2.21L109.06-24.65L103.46-24.65ZM135.82-13.44L135.82-13.44Q135.82-15.63 135.39-17.30Q134.96-18.98 134.16-20.22Q133.36-21.46 132.21-22.30Q131.05-23.14 129.61-23.66Q128.16-24.18 126.46-24.39Q124.77-24.61 122.85-24.61L122.85-24.61L111.50-24.61L111.50-2.25L122.85-2.25Q125.72-2.25 128.11-2.76Q130.49-3.28 132.20-4.56Q133.91-5.84 134.86-8.00Q135.82-10.16 135.82-13.44Z M145.37-10.23L162.54-10.23Q162.44-11.56 161.93-12.75Q161.43-13.95 160.41-14.85Q159.39-15.76 157.85-16.30Q156.31-16.84 154.14-16.84L154.14-16.84Q152.11-16.84 150.55-16.30Q148.98-15.76 147.89-14.85Q146.80-13.95 146.17-12.75Q145.55-11.56 145.37-10.23L145.37-10.23ZM154.10 0.49L154.10 0.49Q151.54 0.49 149.46-0.19Q147.38-0.86 145.92-2.12Q144.45-3.38 143.65-5.18Q142.85-6.97 142.85-9.20L142.85-9.20Q142.85-11.37 143.69-13.17Q144.53-14.98 146.04-16.28Q147.54-17.58 149.61-18.29Q151.68-19.00 154.14-19.00L154.14-19.00Q156.70-19.00 158.73-18.28Q160.76-17.56 162.17-16.20Q163.57-14.84 164.32-12.91Q165.06-10.98 165.06-8.55L165.06-8.55L165.06-8.13L145.37-8.13Q145.51-6.64 146.14-5.45Q146.78-4.26 147.89-3.42Q149.00-2.58 150.56-2.13Q152.11-1.68 154.10-1.68L154.10-1.68Q156.02-1.68 157.43-1.99Q158.85-2.30 159.83-2.83Q160.82-3.36 161.44-4.02Q162.05-4.69 162.38-5.39L162.38-5.39L164.82-5.39Q163.67-2.42 160.91-0.97Q158.14 0.49 154.10 0.49Z M166.50-16.41L166.50-18.59L176.15-18.59L176.15-16.41L172.87-16.41L179.75-2.36L186.66-16.41L183.38-16.41L183.38-18.59L193.03-18.59L193.03-16.41L189.34-16.41L180.98 0L178.46 0L170.18-16.41L166.50-16.41Z"/>
                </g>
            </svg>
        </g>
    </g>
</svg>